<svg xmlns="http://www.w3.org/2000/svg" viewBox="0 0 17.83 30.06"><defs><style>.cls-1,.cls-2{fill:none;stroke:#000;stroke-miterlimit:10;stroke-width:2px;}.cls-2,.cls-3{fill-rule:evenodd;}</style></defs><title>Asset 3</title><g id="Layer_2" data-name="Layer 2"><g id="Layer_1-2" data-name="Layer 1"><ellipse class="cls-1" cx="13.14" cy="18.8" rx="3.69" ry="1.46"/><path class="cls-2" d="M9.45,18.74V27.6c0,.8,1.66,1.46,3.69,1.46s3.69-.66,3.69-1.46V18.8"/><path d="M7.93,15.75a3.24,3.24,0,0,1-1.29-2.29l-.29-4H5l-.28,4.06a3.26,3.26,0,0,1-1.3,2.24l-.6.52a2.18,2.18,0,0,0-.8,1.9l1.23,9.29H6.46v2H3A1.67,1.67,0,0,1,1.3,28L0,18.42A4.19,4.19,0,0,1,1.5,14.76l.61-.53c.47-.4.6-.7.6-.81l.41-6H8.23l.41,5.93c0,.15.13.45.6.85l.61.53Zm.13,12h0Zm-4.78,0h0Z"/><polygon class="cls-3" points="4.4 4.25 5.16 0 6.17 0 6.93 4.29 4.4 4.25"/><path d="M8.21,2.63V5.45H3.12V2.64A.85.85,0,0,1,4,1.79h3.4A.85.85,0,0,1,8.21,2.63Z"/></g></g></svg>