<?xml version="1.0" encoding="UTF-8"?>
<svg width="120px" height="120px" viewBox="0 0 120 120" version="1.1" xmlns="http://www.w3.org/2000/svg" xmlns:xlink="http://www.w3.org/1999/xlink">
    <title>Logo</title>
    <g id="Poland---Maggi" stroke="none" stroke-width="1" fill="none" fill-rule="evenodd">
        <g id="Logo">
            <rect id="Rectangle" x="0" y="0" width="120" height="120"></rect>
            <path d="M87.461,57.7652 L109.134,57.7652 L109.134,36.0892 L87.461,36.0892 L87.461,57.7652 Z M87.461,83.0452 L109.134,83.0452 L109.134,61.3702 L87.461,61.3702 L87.461,83.0452 Z M87.461,108.3272 L109.134,108.3272 L109.134,86.6522 L87.461,86.6522 L87.461,108.3272 Z M62.179,108.3272 L83.853,108.3272 L83.853,86.6522 L62.179,86.6522 L62.179,108.3272 Z M36.896,108.3272 L58.562,108.3272 L58.562,86.6522 L36.896,86.6522 L36.896,108.3272 Z M11.616,108.3272 L33.282,108.3272 L33.282,86.6522 L11.616,86.6522 L11.616,108.3272 Z M11.616,83.0462 L33.282,83.0462 L33.282,61.3712 L11.616,61.3712 L11.616,83.0462 Z M11.616,37.8982 L11.616,36.0892 L33.282,36.0892 L33.282,57.7662 L11.616,57.7662 L11.616,37.8982 Z M36.896,57.7652 L58.562,57.7652 L58.562,36.0892 L36.896,36.0892 L36.896,57.7652 Z M36.896,83.0462 L58.562,83.0462 L58.562,61.3712 L36.896,61.3712 L36.896,83.0462 Z M62.179,83.0452 L83.853,83.0452 L83.853,61.3702 L62.179,61.3702 L62.179,83.0452 Z M62.179,57.7652 L83.853,57.7652 L83.853,36.0892 L62.179,36.0892 L62.179,57.7652 Z M85.476,16.2222 C84.629,12.1052 80.987,9.0002 76.623,9.0002 C75.626,9.0002 74.823,9.8112 74.823,10.8092 C74.823,11.8042 75.626,12.6172 76.623,12.6172 C79.611,12.6172 82.045,15.0422 82.045,18.0302 C82.045,21.0192 79.611,23.4432 76.623,23.4432 C75.626,23.4432 74.823,24.2562 74.823,25.2522 C74.823,26.2502 75.626,27.0602 76.623,27.0602 C80.987,27.0602 84.629,23.9562 85.476,19.8382 L109.134,19.8382 L109.134,32.4732 L11.616,32.4732 L11.616,19.8382 L42.312,19.8382 C43.309,19.8382 44.119,19.0252 44.119,18.0302 C44.119,17.0352 43.309,16.2222 42.312,16.2222 L39.031,16.2222 C39.78,14.1252 41.764,12.6172 44.119,12.6172 C47.109,12.6172 49.532,15.0422 49.532,18.0302 C49.532,21.0192 47.109,23.4432 44.119,23.4432 C43.124,23.4432 42.312,24.2562 42.312,25.2522 C42.312,26.2502 43.124,27.0602 44.119,27.0602 C49.101,27.0602 53.149,23.0122 53.149,18.0302 C53.149,13.0482 49.101,9.0002 44.119,9.0002 C39.761,9.0002 36.112,12.1052 35.274,16.2222 L8,16.2222 L8,111.9422 L112.741,111.9422 L112.741,16.2222 L85.476,16.2222 Z" id="Fill-1" fill="#000000"></path>
            <path d="M54.9562,12.617 C57.9452,12.617 60.3712,15.042 60.3712,18.03 C60.3712,21.019 57.9452,23.443 54.9562,23.443 C53.9592,23.443 53.1482,24.257 53.1482,25.252 C53.1482,26.25 53.9592,27.06 54.9562,27.06 C59.9292,27.06 63.9862,23.012 63.9862,18.03 C63.9862,13.048 59.9292,9 54.9562,9 C53.9592,9 53.1482,9.811 53.1482,10.809 C53.1482,11.805 53.9592,12.617 54.9562,12.617" id="Fill-3" fill="#000000"></path>
            <path d="M65.7941,12.617 C68.7741,12.617 71.2081,15.042 71.2081,18.03 C71.2081,21.019 68.7741,23.443 65.7941,23.443 C64.7961,23.443 63.9861,24.257 63.9861,25.252 C63.9861,26.25 64.7961,27.06 65.7941,27.06 C70.7671,27.06 74.8231,23.012 74.8231,18.03 C74.8231,13.048 70.7671,9 65.7941,9 C64.7961,9 63.9861,9.811 63.9861,10.809 C63.9861,11.805 64.7961,12.617 65.7941,12.617" id="Fill-4" fill="#000000"></path>
            <polygon id="Fill-5" fill="#000000" points="77.0016 80.742 63.4126 67.546 68.0596 62.761 76.1026 70.572 88.8096 52.907 94.2236 56.801"></polygon>
        </g>
    </g>
</svg>